<?xml version="1.0" standalone="no"?>
<!DOCTYPE svg PUBLIC "-//W3C//DTD SVG 20010904//EN"
 "http://www.w3.org/TR/2001/REC-SVG-20010904/DTD/svg10.dtd">
<svg version="1.0" xmlns="http://www.w3.org/2000/svg"
 width="700.000000pt" height="700.000000pt" viewBox="0 0 700.000000 700.000000"
 preserveAspectRatio="xMidYMid meet">
<metadata>
Created by potrace 1.11, written by Peter Selinger 2001-2013
</metadata>
<g transform="translate(0.000000,700.000000) scale(0.100000,-0.100000)"
fill="#000000" stroke="none">
<path d="M3405 6696 c-49 -29 -196 -114 -325 -188 -129 -75 -251 -145 -270
-157 -19 -11 -60 -34 -90 -51 -30 -17 -62 -35 -70 -40 -8 -5 -98 -58 -200
-116 -102 -58 -210 -121 -240 -139 -30 -18 -75 -44 -100 -57 -25 -14 -99 -57
-165 -95 -66 -39 -194 -113 -285 -165 -91 -52 -295 -170 -455 -263 -159 -92
-342 -196 -405 -233 l-115 -65 0 -1623 c0 -1038 4 -1627 10 -1632 8 -7 139
-83 450 -262 17 -9 89 -51 160 -92 72 -42 146 -85 165 -96 41 -23 152 -87 195
-112 17 -10 174 -101 350 -202 176 -102 435 -252 575 -333 140 -81 275 -159
300 -173 25 -13 81 -46 125 -72 44 -26 109 -64 145 -84 36 -20 72 -41 80 -46
8 -5 70 -41 137 -80 l121 -70 169 97 c92 53 178 102 190 107 13 6 23 14 23 19
0 4 4 7 9 7 5 0 107 57 227 126 121 70 291 168 379 219 88 50 205 118 260 150
142 83 274 159 390 225 55 31 141 81 190 110 50 29 106 62 125 72 48 28 190
110 215 125 11 7 29 17 40 22 11 6 150 86 310 179 l290 168 0 1625 0 1624
-135 78 c-74 43 -164 95 -200 114 -36 20 -72 42 -81 49 -8 8 -19 14 -23 14 -6
0 -84 44 -176 100 -19 11 -278 161 -305 176 -11 6 -60 35 -110 64 -49 29 -106
61 -125 72 -19 11 -75 44 -125 73 -49 29 -110 63 -135 77 -25 14 -170 98 -323
187 -153 88 -283 161 -288 161 -5 0 -9 5 -9 10 0 6 -5 10 -11 10 -6 0 -56 27
-111 60 -54 33 -101 60 -103 60 -2 0 -61 34 -130 75 -70 41 -129 75 -131 75
-3 0 -30 16 -60 35 -30 19 -56 35 -59 35 -2 0 -42 23 -89 50 -47 28 -86 50
-88 50 -2 -1 -43 -25 -93 -54z"/>
</g>
</svg>
